<mxfile host="app.diagrams.net" modified="2024-04-02T00:01:48.122Z" agent="Mozilla/5.0 (Windows NT 10.0; Win64; x64) AppleWebKit/537.36 (KHTML, like Gecko) Chrome/123.0.0.0 Safari/537.36" version="24.2.1" etag="8foRFrB1yx0OfXFRWHcK" type="github">
  <diagram name="第 1 页" id="g-XIfex4TskC4Jcx5bEU">
    <mxGraphModel>
      <root>
        <mxCell id="0" />
        <mxCell id="1" parent="0" />
      </root>
    </mxGraphModel>
  </diagram>
</mxfile>
